<!DOCTYPE svg PUBLIC "-//W3C//DTD SVG 1.1//EN" "http://www.w3.org/Graphics/SVG/1.1/DTD/svg11.dtd">
<!-- Uploaded to: SVG Repo, www.svgrepo.com, Transformed by: SVG Repo Mixer Tools -->
<svg version="1.1" id="Icons" xmlns="http://www.w3.org/2000/svg" xmlns:xlink="http://www.w3.org/1999/xlink" viewBox="0 0 32 32" xml:space="preserve" width="800px" height="800px" fill="#000000">
<g id="SVGRepo_bgCarrier" stroke-width="0"/>
<g id="SVGRepo_tracerCarrier" stroke-linecap="round" stroke-linejoin="round"/>
<g id="SVGRepo_iconCarrier"> <style type="text/css"> .st0{fill:none;stroke:#2DFF95;stroke-width:2;stroke-linecap:round;stroke-linejoin:round;stroke-miterlimit:10;} .st1{fill:none;stroke:#2DFF95;stroke-width:2;} .st2{fill:none;stroke:#2DFF95;stroke-width:2;stroke-miterlimit:10;} </style> <path class="st0" d="M24,10.5L24,10.5C24,6.4,20.6,3,16.5,3h-6C6.4,3,3,6.4,3,10.5V13v2v6.5c0,4.1,3.4,7.5,7.5,7.5h11 c4.1,0,7.5-3.4,7.5-7.5v-6.9c0-0.9-0.7-1.6-1.6-1.6h-0.9C25.1,13,24,11.9,24,10.5z"/> <path class="st0" d="M16,13h-5c-1.1,0-2-0.9-2-2v0c0-1.1,0.9-2,2-2h5c1.1,0,2,0.9,2,2v0C18,12.1,17.1,13,16,13z"/> <path class="st0" d="M20,23h-9c-1.1,0-2-0.9-2-2v0c0-1.1,0.9-2,2-2h9c1.1,0,2,0.9,2,2v0C22,22.1,21.1,23,20,23z"/> </g>
</svg>